<?xml version="1.0" standalone="no"?><!DOCTYPE svg PUBLIC "-//W3C//DTD SVG 1.1//EN" "http://www.w3.org/Graphics/SVG/1.1/DTD/svg11.dtd"><svg t="1771685220423" class="icon" viewBox="0 0 1024 1024" version="1.1" xmlns="http://www.w3.org/2000/svg" p-id="12789" xmlns:xlink="http://www.w3.org/1999/xlink" width="200" height="200"><path d="M446.523077 302.276923c-56-43.076923-53.292308-123.076923-7.384615-165.169231 43.076923-39.384615 110.030769-37.415385 150.646154 4.923077 41.230769 42.953846 41.476923 117.046154-12.553846 160.123077 8.615385 1.969231 16.861538 3.692308 24.984615 5.661538 138.461538 33.476923 248.615385 146.707692 277.415385 285.661538 3.446154 16.861538 5.415385 34.092308 7.507692 51.2 0.492308 4.184615 1.476923 6.276923 5.661538 8 31.753846 13.169231 51.569231 45.538462 49.107692 79.384615-2.461538 34.338462-25.969231 63.384615-59.076923 72.246154-6.892308 1.846154-14.276923 2.830769-21.415385 2.830769-232.984615 0.123077-465.846154 0.123077-698.830769 0.123077-39.261538 0-71.261538-26.953846-79.138462-65.969231-7.384615-36.553846 13.169231-74.215385 48.615385-88.861538 3.569231-1.476923 4.553846-3.323077 4.8-6.892308 4.061538-55.384615 18.953846-107.815385 46.769231-155.938462 58.215385-100.676923 144.369231-162.953846 258.461538-186.215385C443.569231 303.138462 445.046154 302.646154 446.523077 302.276923L446.523077 302.276923zM511.384615 743.384615c109.046154 0 217.969231 0 327.015385 0 2.092308 0 4.184615 0.123077 6.276923-0.123077 13.538462-0.861538 24.123077-12.061538 24.123077-25.353846 0-12.923077-10.215385-24.246154-23.015385-25.353846-19.692308-1.723077-27.076923-10.338462-28.307692-30.153846-1.107692-18.707692-2.338462-37.661538-5.907692-56-32.492308-162.584615-189.784615-269.538462-352.861538-240.369231-144.492308 25.723077-250.584615 150.646154-252.184615 297.230769-0.246154 18.830769-8.861538 28.061538-27.815385 29.415385-19.2 1.476923-29.784615 23.507692-18.953846 39.384615 5.661538 8.246154 13.784615 11.446154 23.630769 11.446154C292.676923 743.384615 401.969231 743.384615 511.384615 743.384615L511.384615 743.384615zM554.092308 216.369231c0.123077-23.261538-18.830769-42.338462-42.092308-42.215385-23.138462 0-41.969231 18.830769-42.092308 41.846154-0.123077 23.384615 18.707692 42.461538 41.846154 42.461538C535.015385 258.584615 553.969231 239.753846 554.092308 216.369231L554.092308 216.369231zM512.492308 851.076923c133.169231 0 266.338462 0 399.507692 0 16 0 26.461538 9.230769 29.415385 25.723077 3.076923 17.107692-6.769231 34.461538-21.169231 37.415385-3.323077 0.615385-6.646154 0.861538-9.969231 0.861538-265.6 0-531.2 0-796.8 0-15.876923 0-26.092308-7.507692-30.153846-22.276923-4.923077-18.215385 4.923077-37.784615 20.8-40.984615 3.076923-0.615385 6.276923-0.738462 9.476923-0.738462C246.523077 851.076923 379.446154 851.076923 512.492308 851.076923L512.492308 851.076923zM519.015385 403.2c4.553846 0 9.230769-0.492308 13.784615 0.123077 13.907692 1.6 24.369231 13.661538 24.861538 28.184615 0.492308 15.384615-8.984615 28.553846-23.384615 30.769231-9.6 1.476923-19.569231 0.984615-29.169231 2.338462-92.307692 12.553846-155.815385 64.492308-191.753846 153.723077-1.107692 2.707692-1.846154 5.538462-3.076923 8.123077-6.523077 14.523077-22.646154 21.046154-36.8 15.138462-14.153846-5.907692-21.538462-22.153846-16.492308-37.538462 11.076923-33.723077 27.692308-64.369231 49.723077-91.815385 46.523077-57.969231 105.6-93.292308 177.230769-105.6 11.569231-1.969231 23.384615-2.707692 35.076923-3.938462C518.892308 402.830769 519.015385 403.076923 519.015385 403.2L519.015385 403.2z" p-id="12790" fill="#2c2c2c"></path></svg>