<?xml version="1.0" standalone="no"?><!DOCTYPE svg PUBLIC "-//W3C//DTD SVG 1.1//EN" "http://www.w3.org/Graphics/SVG/1.1/DTD/svg11.dtd"><svg t="1771685879197" class="icon" viewBox="0 0 1024 1024" version="1.1" xmlns="http://www.w3.org/2000/svg" p-id="34416" xmlns:xlink="http://www.w3.org/1999/xlink" width="200" height="200"><path d="M278.196706 328.794353a30.117647 30.117647 0 0 0 15.811765-58.127059c-15.570824-4.246588-29.244235-16.865882-31.804236-29.334588-0.632471-3.102118-2.56-12.438588 12.498824-24.395294 31.744-25.178353 47.073882-53.037176 45.658353-82.793412-2.108235-43.640471-40.327529-69.632-44.694588-72.432941A30.147765 30.147765 0 0 0 242.959059 112.338824c2.740706 1.746824 16.685176 13.131294 17.257412 24.756705 0.451765 9.005176-7.710118 20.630588-22.91953 32.707765-28.009412 22.196706-40.417882 52.736-34.032941 83.666824 7.107765 34.785882 37.255529 65.054118 74.932706 75.324235zM549.255529 328.794353a30.117647 30.117647 0 0 0 15.811765-58.127059c-15.570824-4.246588-29.244235-16.865882-31.804235-29.334588-0.632471-3.102118-2.56-12.438588 12.498823-24.395294 31.744-25.178353 47.073882-53.037176 45.658353-82.793412-2.108235-43.640471-40.327529-69.632-44.694588-72.432941a30.147765 30.147765 0 0 0-32.737882 50.597647c2.740706 1.776941 16.685176 13.161412 17.257411 24.756706 0.451765 9.005176-7.710118 20.630588-22.919529 32.707764-28.009412 22.196706-40.417882 52.736-34.032941 83.666824 7.137882 34.816 37.285647 65.084235 74.962823 75.354353zM820.314353 328.794353a30.117647 30.117647 0 0 0 15.811765-58.127059c-15.570824-4.246588-29.244235-16.865882-31.804236-29.334588-0.632471-3.102118-2.56-12.438588 12.498824-24.395294 31.744-25.178353 47.073882-53.037176 45.658353-82.793412-2.108235-43.640471-40.327529-69.632-44.694588-72.432941a30.117647 30.117647 0 0 0-32.737883 50.597647c2.740706 1.776941 16.685176 13.161412 17.257412 24.756706 0.451765 9.005176-7.710118 20.630588-22.919529 32.707764-28.009412 22.196706-40.417882 52.736-34.032942 83.666824 7.137882 34.816 37.285647 65.084235 74.962824 75.354353zM881.332706 508.235294H843.294118v-30.117647c0-49.814588-40.538353-90.352941-90.352942-90.352941s-90.352941 40.538353-90.352941 90.352941v30.117647h-60.235294v-30.117647c0-49.814588-40.538353-90.352941-90.352941-90.352941s-90.352941 40.538353-90.352941 90.352941v30.117647h-60.235294v-30.117647c0-49.814588-40.538353-90.352941-90.352941-90.352941s-90.352941 40.538353-90.352942 90.352941v30.117647H146.522353c-46.742588 0-84.781176 43.610353-84.781177 90.352941s38.038588 90.352941 84.781177 90.352941H180.705882v180.705883c0 49.814588 40.538353 90.352941 90.352942 90.352941s90.352941-40.538353 90.352941-90.352941v-180.705883h60.235294v180.705883c0 49.814588 40.538353 90.352941 90.352941 90.352941s90.352941-40.538353 90.352941-90.352941v-180.705883h60.235294v180.705883c0 49.814588 40.538353 90.352941 90.352941 90.352941s90.352941-40.538353 90.352942-90.352941v-180.705883h38.038588c46.742588 0 84.781176-43.610353 84.781176-90.352941s-38.038588-90.352941-84.781176-90.352941z m-734.810353 120.470588c-15.570824 0-28.250353-14.516706-28.250353-30.117647s12.679529-30.117647 28.250353-30.117647H180.705882v60.235294H146.522353z m154.654118 240.941177a30.147765 30.147765 0 0 1-60.235295 0v-391.529412c0-16.594824 13.522824-30.117647 30.117648-30.117647s30.117647 13.522824 30.117647 30.117647v391.529412z m60.235294-240.941177v-60.235294h60.235294v60.235294h-60.235294z m180.705882 240.941177a30.147765 30.147765 0 0 1-60.235294 0v-391.529412c0-16.594824 13.522824-30.117647 30.117647-30.117647s30.117647 13.522824 30.117647 30.117647v391.529412z m60.235294-240.941177v-60.235294h60.235294v60.235294h-60.235294z m180.705883 240.941177a30.147765 30.147765 0 0 1-60.235295 0v-391.529412c0-16.594824 13.522824-30.117647 30.117647-30.117647s30.117647 13.522824 30.117648 30.117647v391.529412z m98.273882-240.941177H843.294118v-60.235294h38.038588c15.570824 0 28.250353 14.516706 28.250353 30.117647s-12.679529 30.117647-28.250353 30.117647z" fill="#2c2c2c" p-id="34417"></path></svg>