<?xml version="1.0" standalone="no"?><!DOCTYPE svg PUBLIC "-//W3C//DTD SVG 1.1//EN" "http://www.w3.org/Graphics/SVG/1.1/DTD/svg11.dtd"><svg t="1771686205602" class="icon" viewBox="0 0 1024 1024" version="1.1" xmlns="http://www.w3.org/2000/svg" p-id="48318" xmlns:xlink="http://www.w3.org/1999/xlink" width="200" height="200"><path d="M613.285 774.962h-62.76V711.58h62.76c17.398 0 31.69-14.292 31.69-31.69s-14.292-31.69-31.69-31.69h-62.76v-67.11c54.06-14.291 94.45-64.001 94.45-123.032 0-70.216-56.545-126.762-126.14-126.762-69.594 0-126.14 56.546-126.14 126.762 0 59.03 40.39 108.74 94.45 123.033v226.181c0 17.399 14.292 31.69 31.69 31.69h94.45c17.398 0 31.69-14.291 31.69-31.69 0-18.02-14.292-32.311-31.69-32.311z m-157.21-316.903c0-34.798 27.963-63.381 62.76-63.381s62.76 28.583 62.76 63.38-27.963 63.381-62.76 63.381-62.76-28.583-62.76-63.38z m490.89-26.72L543.069 100.145l-1.864-1.864c-6.214-4.971-14.292-7.457-22.991-6.836-8.7 0-16.777 1.865-22.991 6.836l-1.864 1.864L89.463 431.339c-13.67 11.185-15.535 29.205-2.486 39.147 12.428 10.564 33.555 9.32 47.846-1.864l384.012-315.039 384.012 315.04c13.67 11.184 35.419 12.427 47.846 1.863 11.806-10.563 10.564-27.962-3.728-39.147z m-101.906 58.41c-17.399 0-31.69 14.292-31.69 31.69v253.523c0 70.215 6.213 95.07-63.381 95.07h-78.915c-17.399 0-31.69 14.292-31.69 31.69s14.291 31.691 31.69 31.691h78.915c69.594 0 126.14-56.545 126.14-126.761V521.439c0-17.398-13.67-31.69-31.07-31.69zM380.268 870.032H309.43c-69.595 0-63.38-24.855-63.38-95.07V521.439c0-17.398-14.293-31.69-31.691-31.69s-31.69 14.292-31.69 31.69v285.213c0 70.216 24.855 126.761 94.449 126.761h102.527c17.399 0 31.69-14.292 31.69-31.69 0.622-17.399-13.67-31.07-31.068-31.69z" p-id="48319" fill="#2c2c2c"></path></svg>