<?xml version="1.0" standalone="no"?><!DOCTYPE svg PUBLIC "-//W3C//DTD SVG 1.1//EN" "http://www.w3.org/Graphics/SVG/1.1/DTD/svg11.dtd"><svg t="1771686131721" class="icon" viewBox="0 0 1024 1024" version="1.1" xmlns="http://www.w3.org/2000/svg" p-id="44278" xmlns:xlink="http://www.w3.org/1999/xlink" width="200" height="200"><path d="M453.44 448H128v128h197.44l128-128zM704 448h192v128h-192z" p-id="44279" fill="#2c2c2c"></path><path d="M829.12 253.12L784 208 192 800l22.72 22.72 22.4 22.4L506.56 576H672v-128h-37.44l194.56-194.88zM185.92 234.56a196.8 196.8 0 0 1 22.08 24.32 140.8 140.8 0 0 1-16.96 22.4A154.24 154.24 0 0 0 144.32 384h64a96 96 0 0 1 32-61.12 98.88 98.88 0 0 0 32-69.12 111.04 111.04 0 0 0-41.28-64l-12.8-13.12C239.04 170.88 272.32 160 272.32 128h-64a22.08 22.08 0 0 1 9.28-18.56 120 120 0 0 1-16.64 5.12c-20.48 5.44-48.96 12.8-55.36 39.68-8.32 32.32 17.6 57.92 40.32 80.32z" p-id="44280" fill="#2c2c2c"></path></svg>