<?xml version="1.0" standalone="no"?><!DOCTYPE svg PUBLIC "-//W3C//DTD SVG 1.1//EN" "http://www.w3.org/Graphics/SVG/1.1/DTD/svg11.dtd"><svg t="1771685940205" class="icon" viewBox="0 0 1050 1024" version="1.1" xmlns="http://www.w3.org/2000/svg" p-id="35849" xmlns:xlink="http://www.w3.org/1999/xlink" width="205.078125" height="200"><path d="M524.8 277.504c-130.048 0-237.568 103.936-237.568 232.96s105.984 232.96 237.568 232.96S762.88 637.44 762.88 509.952s-108.032-232.448-238.08-232.448z m0 381.952c-83.456 0-152.576-67.584-152.576-148.992s68.608-148.992 152.576-148.992 152.576 67.072 152.576 148.992-68.608 148.992-152.576 148.992zM718.336 271.872c0 29.184 24.064 52.736 53.76 52.736s53.76-23.552 53.76-52.736c0-29.184-24.064-52.736-53.76-52.736s-53.76 23.552-53.76 52.736z" fill="#2c2c2c" p-id="35850"></path><path d="M911.36 135.168c-48.128-49.152-117.248-74.752-195.072-74.752H333.824c-161.792 0-269.312 105.472-269.312 263.68v372.736c0 78.336 26.112 145.408 77.824 194.56 50.176 47.104 117.248 71.168 193.024 71.168h378.88c79.872 0 146.944-25.6 195.072-71.168 50.176-47.104 76.288-114.688 76.288-193.024v-373.76c0-76.288-25.6-141.824-74.24-189.44z m-7.168 564.224c0 56.32-20.48 101.888-53.76 132.608s-79.872 47.104-135.68 47.104h-378.88c-55.808 0-102.4-16.384-135.68-47.104-33.28-32.768-50.176-78.336-50.176-134.656V324.608c0-54.784 16.896-99.84 50.176-132.608 31.744-30.72 79.872-47.104 135.68-47.104h382.976c55.808 0 102.4 16.384 135.68 49.152 31.744 32.768 50.176 78.336 50.176 131.072l-0.512 374.272z" fill="#2c2c2c" p-id="35851"></path></svg>