<?xml version="1.0" standalone="no"?><!DOCTYPE svg PUBLIC "-//W3C//DTD SVG 1.1//EN" "http://www.w3.org/Graphics/SVG/1.1/DTD/svg11.dtd"><svg t="1771685334706" class="icon" viewBox="0 0 1024 1024" version="1.1" xmlns="http://www.w3.org/2000/svg" p-id="16569" xmlns:xlink="http://www.w3.org/1999/xlink" width="200" height="200"><path d="M618.917647 125.891765H120.470588a30.117647 30.117647 0 0 0-30.117647 30.117647v711.981176a30.117647 30.117647 0 0 0 30.117647 30.117647h498.447059a30.117647 30.117647 0 0 0 30.117647-30.117647V156.009412a30.117647 30.117647 0 0 0-30.117647-30.117647z m-30.117647 711.981176H150.588235V186.127059h438.211765z" fill="#2c2c2c" p-id="16570"></path><path d="M227.388235 277.985882a15.058824 15.058824 0 0 0 15.058824-15.058823V227.388235a15.058824 15.058824 0 0 0-30.117647 0v35.538824a15.058824 15.058824 0 0 0 15.058823 15.058823zM529.769412 793.901176a15.058824 15.058824 0 0 0 15.058823-15.058823v-35.538824a15.058824 15.058824 0 0 0-30.117647 0v35.538824a15.058824 15.058824 0 0 0 15.058824 15.058823zM240.941176 512v3.614118a238.531765 238.531765 0 0 0 102.4 108.423529l3.915295 2.108235a37.044706 37.044706 0 0 0 7.830588 2.710589 53.910588 53.910588 0 0 0 24.997647 0 34.334118 34.334118 0 0 0 10.24-3.312942h2.710588a240.941176 240.941176 0 0 0 104.809412-108.724705v-3.614118a86.738824 86.738824 0 0 0-129.505882-105.712941A86.738824 86.738824 0 0 0 240.941176 512z m79.510589-60.235294a26.804706 26.804706 0 0 1 23.491764 14.155294 30.117647 30.117647 0 0 0 26.50353 15.962353 30.117647 30.117647 0 0 0 26.503529-15.962353 26.503529 26.503529 0 0 1 47.585883 23.792941 26.503529 26.503529 0 0 0 0 3.614118 180.705882 180.705882 0 0 1-73.185883 76.498823 177.392941 177.392941 0 0 1-71.981176-76.498823l-1.505883-3.915294a25.901176 25.901176 0 0 1-2.710588-11.444706 26.503529 26.503529 0 0 1 24.395294-26.202353zM930.334118 355.990588a30.117647 30.117647 0 0 0-20.781177-15.661176l-177.995294-35.538824a30.117647 30.117647 0 1 0-11.745882 60.235294l140.649411 28.009412-162.334117 355.689412a30.117647 30.117647 0 1 0 54.814117 24.997647l177.995295-391.529412a30.117647 30.117647 0 0 0-0.602353-26.202353z" fill="#2c2c2c" p-id="16571"></path></svg>