<?xml version="1.0" standalone="no"?><!DOCTYPE svg PUBLIC "-//W3C//DTD SVG 1.1//EN" "http://www.w3.org/Graphics/SVG/1.1/DTD/svg11.dtd"><svg t="1771685466943" class="icon" viewBox="0 0 1024 1024" version="1.1" xmlns="http://www.w3.org/2000/svg" p-id="21595" xmlns:xlink="http://www.w3.org/1999/xlink" width="200" height="200"><path d="M416 432a48 48 0 1 1-96 0 48 48 0 0 1 96 0zM656 480a48 48 0 1 0 0-96 48 48 0 0 0 0 96z" fill="#2c2c2c" p-id="21596"></path><path d="M384 32a32 32 0 0 1 32-32h192a32 32 0 0 1 32 32V128h224a32 32 0 0 1 32 32v512a32 32 0 0 1-32 32H640v64h224a32 32 0 0 1 32 32v192a32 32 0 0 1-32 32h-704a32 32 0 0 1-32-32v-192a32 32 0 0 1 32-32H384v-64H160a32 32 0 0 1-32-32v-512a32 32 0 0 1 32-32H384V32zM448 128h128V64H448v64z m0 576v96a32 32 0 0 1-32 32H192v128h640v-128H608a32 32 0 0 1-32-32V704H448zM192 192v448h640V192H192zM32 288A32 32 0 0 1 64 320v224a32 32 0 0 1-64 0V320a32 32 0 0 1 32-32zM992 288a32 32 0 0 1 32 32v224a32 32 0 0 1-64 0V320a32 32 0 0 1 32-32z" fill="#2c2c2c" p-id="21597"></path></svg>