<?xml version="1.0" standalone="no"?><!DOCTYPE svg PUBLIC "-//W3C//DTD SVG 1.1//EN" "http://www.w3.org/Graphics/SVG/1.1/DTD/svg11.dtd"><svg t="1771685274882" class="icon" viewBox="0 0 1024 1024" version="1.1" xmlns="http://www.w3.org/2000/svg" p-id="13941" xmlns:xlink="http://www.w3.org/1999/xlink" width="200" height="200"><path d="M977.92 1022.293333h-921.6c-15.36 0-29.013333-13.653333-29.013333-29.013333C29.013333 747.52 247.466667 546.133333 517.12 546.133333S1006.933333 747.52 1006.933333 993.28c0 15.36-13.653333 29.013333-29.013333 29.013333zM87.04 964.266667h860.16c-17.066667-201.386667-203.093333-360.106667-430.08-360.106667S104.106667 762.88 87.04 964.266667z" p-id="13942" fill="#2c2c2c"></path><path d="M517.12 590.506667c-158.72 0-288.426667-129.706667-288.426667-288.426667S358.4 15.36 517.12 15.36s288.426667 129.706667 288.426667 288.426667-129.706667 286.72-288.426667 286.72z m0-518.826667c-126.293333 0-230.4 104.106667-230.4 230.4s104.106667 230.4 230.4 230.4 230.4-104.106667 230.4-230.4-102.4-230.4-230.4-230.4z" p-id="13943" fill="#2c2c2c"></path><path d="M517.12 964.266667c-8.533333 0-15.36-5.12-18.773333-11.946667L375.466667 715.093333c-1.706667-3.413333-3.413333-6.826667-1.706667-11.946666 3.413333-49.493333 35.84-141.653333 143.36-141.653334s141.653333 93.866667 143.36 141.653334c0 3.413333 0 8.533333-1.706667 11.946666l-122.88 237.226667c-3.413333 6.826667-10.24 11.946667-18.773333 11.946667z m-98.986667-262.826667l100.693334 194.56 100.693333-194.56c-3.413333-22.186667-18.773333-95.573333-100.693333-95.573333-83.626667-1.706667-98.986667 71.68-100.693334 95.573333z" p-id="13944" fill="#2c2c2c"></path></svg>