<?xml version="1.0" standalone="no"?><!DOCTYPE svg PUBLIC "-//W3C//DTD SVG 1.1//EN" "http://www.w3.org/Graphics/SVG/1.1/DTD/svg11.dtd"><svg t="1771686161798" class="icon" viewBox="0 0 1024 1024" version="1.1" xmlns="http://www.w3.org/2000/svg" p-id="45408" xmlns:xlink="http://www.w3.org/1999/xlink" width="200" height="200"><path d="M450.3552 414.3872a63.9488 63.9488 0 1 1-127.8976 0 63.9488 63.9488 0 0 1 127.8976 0z m189.4656 63.9488a63.9488 63.9488 0 1 0 0-127.8976 63.9488 63.9488 0 0 0 0 127.8976z m254.4128 353.5104v128.2048A64 64 0 0 1 830.2848 1024H192.256a64 64 0 0 1-63.9488-63.9488v-128.2048a64 64 0 0 1 63.9488-63.9488h191.0272l0.0768-0.0768v-66.9696h-126.1568A64 64 0 0 1 193.28 636.928V191.8464a64.0256 64.0256 0 0 1 63.9488-63.9488h126.1568V63.9488A64.0256 64.0256 0 0 1 447.3088 0h128.9216a64 64 0 0 1 63.9488 63.9488v63.9488h127.1552a64.0256 64.0256 0 0 1 63.9488 63.9488V636.928a64 64 0 0 1-63.9488 63.9488h-127.1552v66.9696l0.0768 0.0768h190.0288a64 64 0 0 1 63.9488 63.9488zM447.3088 127.8976h128.9216V64l-0.0512-0.0512h-128.8192l-0.0512 0.0512v63.8976z m0 509.0048h319.9744l0.0512-0.0512V191.9232l-0.0512-0.0768H257.2544l-0.0512 0.0512v444.928l0.0512 0.0768h190.0544z m382.976 194.9952l-0.0512-0.0512h-190.0544a64 64 0 0 1-63.9488-63.9488V700.928l-0.0512-0.0768h-128.8192l-0.0512 0.0768v66.9696a64.0256 64.0256 0 0 1-63.9488 63.9488H192.3072l-0.0512 0.0512V960l0.0512 0.0512h637.9264l0.0512-0.0512v-128.1024z m64.512-581.376c-17.664 0-31.9744 14.2848-31.9744 31.9488V546.304a32 32 0 0 0 63.9744 0V282.496c0-17.664-14.336-32-32-32z m95.4368 65.9968c-17.664 0-32 14.3104-32 31.9744v128.0256a32 32 0 1 0 64 0v-128.0256c0-17.664-14.336-32-32-32zM159.3856 546.2784V282.496a32 32 0 0 0-63.9488 0v263.7824a32 32 0 1 0 63.9488 0zM32 316.5184c-17.664 0-31.9744 14.3104-31.9744 31.9744v128.0256a32 32 0 1 0 63.9488 0v-128.0256c0-17.664-14.3104-32-31.9744-32z" fill="#2c2c2c" p-id="45409"></path></svg>