<?xml version="1.0" standalone="no"?><!DOCTYPE svg PUBLIC "-//W3C//DTD SVG 1.1//EN" "http://www.w3.org/Graphics/SVG/1.1/DTD/svg11.dtd"><svg t="1771685755167" class="icon" viewBox="0 0 1335 1024" version="1.1" xmlns="http://www.w3.org/2000/svg" p-id="28555" xmlns:xlink="http://www.w3.org/1999/xlink" width="260.7421875" height="200"><path d="M1243.35542 340.425374l-0.252568-0.216487q-115.820398-111.490663-263.68083-171.385323-143.386374-58.054523-298.679517-60.471958-155.293144-2.417435-300.411411 51.126948-149.844894 55.312358-269.12908 163.303152l-20.746644 18.798264q-7.468792 6.783251-16.885965 10.391363-9.381091 3.608112-19.447724 3.608112-2.670003 0-5.303925-0.252568t-5.267843-0.793785q-2.597841-0.505136-5.123519-1.262839-2.525678-0.793785-5.015276-1.804056-2.453516-1.010271-4.798789-2.273111t-4.546221-2.706084q-2.237029-1.479326-4.293654-3.175138-2.056624-1.695813-3.932842-3.572031-1.876218-1.876218-3.572031-3.968924Q10.607849 333.750367 9.128524 331.585499q-1.479326-2.237029-2.742166-4.582302-1.262839-2.345273-2.27311-4.798789-1.010271-2.453516-1.804056-4.979195-0.721622-2.525678-1.262839-5.1596-0.541217-2.597841-0.793785-5.267844Q0 304.163848 0 301.457764q0-5.664736 1.190677-11.185148 1.154596-5.556493 3.463788-10.752174t5.628654-9.741902q3.319463-4.618383 7.504874-8.442983l20.782725-18.762182q134.799067-122.098513 304.272091-184.627095Q506.939746-2.633922 682.438317 0.108243 857.936889 2.88649 1020.013283 68.554129q167.380319 67.760345 298.246544 193.863862l0.144324 0.108243q3.932842 3.788518 7.035819 8.298658 3.066895 4.474059 5.231762 9.525416 2.128786 5.015276 3.21122 10.355282 1.082434 5.340006 1.082434 10.824336 0 2.633922-0.252568 5.267843-0.288649 2.670003-0.793785 5.267844-0.505136 2.597841-1.29892 5.1596-0.757704 2.525678-1.804056 4.979195-0.97419 2.453516-2.23703 4.798789t-2.742165 4.582302q-1.443245 2.200948-3.139057 4.257573-1.695813 2.056624-3.608113 3.932842-1.876218 1.876218-3.896761 3.572031-2.056624 1.695813-4.293653 3.175138-2.164867 1.443245-4.546221 2.706084-2.345273 1.262839-4.798789 2.273111-2.453516 1.010271-5.015276 1.804056-2.525678 0.757704-5.123519 1.262839-2.633922 0.541217-5.267844 0.793785-2.633922 0.252568-5.303924 0.252568-5.195681 0-10.319201-0.97419-5.123519-1.010271-9.922308-2.958652-4.83487-1.948381-9.200686-4.762708-4.365816-2.850409-8.118252-6.458521z m-118.959455 264.113804l-0.072162-0.108244q-83.7082-100.052948-200.827518-153.2726-112.392691-51.126948-236.836477-51.126949-124.407704 0-236.800395 51.126949-117.119318 53.219653-200.863599 153.2726l-0.036081 0.072163q-3.824599 4.546221-8.515145 8.190414-4.690546 3.608112-10.102713 6.133791-5.376087 2.525678-11.185148 3.788517-5.772979 1.262839-11.726364 1.262839-2.633922 0-5.303925-0.252567-2.633922-0.252568-5.231762-0.757704-2.633922-0.541217-5.1596-1.29892-2.525678-0.757704-5.015276-1.804056-2.453516-1.010271-4.798789-2.273111-2.345273-1.226758-4.546222-2.706084-2.200948-1.479326-4.257572-3.175139-2.056624-1.695813-3.968923-3.572031-1.876218-1.876218-3.53595-3.932842-1.695813-2.056624-3.175139-4.257572-1.443245-2.200948-2.742165-4.546221-1.226758-2.345273-2.27311-4.798789-1.010271-2.489597-1.804056-5.051357-0.721622-2.525678-1.26284-5.123519-0.505136-2.597841-0.793784-5.267844-0.252568-2.633922-0.252568-5.303925 0-9.525416 3.247301-18.473533t9.381091-16.236505l0.036081-0.072162q99.547812-118.923374 239.073506-182.353984 133.752715-60.83277 281.613147-60.83277 147.896514 0 281.649229 60.83277 139.381369 63.394529 238.857019 182.209659l0.180406 0.144325q6.133791 7.324468 9.381091 16.272585 3.283382 8.984199 3.283382 18.509615 0 2.670003-0.252568 5.303925-0.252568 2.670003-0.793785 5.267844-0.505136 2.597841-1.262839 5.1596-0.793785 2.525678-1.804056 5.015276-1.010271 2.453516-2.27311 4.798789t-2.742166 4.546221q-1.443245 2.200948-3.139057 4.257572-1.695813 2.056624-3.608112 3.968924-1.840137 1.840137-3.896761 3.535949-2.056624 1.695813-4.293654 3.175139-2.164867 1.443245-4.546221 2.706084-2.345273 1.262839-4.798789 2.273111-2.453516 1.046353-5.015276 1.804056-2.525678 0.757704-5.123519 1.29892-2.633922 0.505136-5.267843 0.757704-2.633922 0.288649-5.303925 0.288649-5.953385 0-11.726364-1.298921t-11.185148-3.788517q-5.376087-2.525678-10.102714-6.133791-4.690546-3.608112-8.479063-8.190414z m-226.481195 157.097199l0.072163 0.072163q3.752437 3.680274 8.154333 6.602845 4.401897 2.88649 9.308929 4.870951 4.870951 1.984462 10.030552 3.030814 5.1596 1.010271 10.463525 1.010271 2.633922 0 5.267843-0.288648 2.670003-0.252568 5.267844-0.757704 2.597841-0.541217 5.1596-1.29892 2.525678-0.757704 4.979195-1.804056 2.453516-1.010271 4.798789-2.23703 2.345273-1.262839 4.582302-2.742165 2.164867-1.479326 4.257572-3.175139 2.056624-1.659732 3.932842-3.572031 1.876218-1.876218 3.572031-3.932842 1.659732-2.056624 3.139058-4.257572 1.479326-2.200948 2.742165-4.546221 1.262839-2.345273 2.273111-4.798789 1.010271-2.453516 1.804056-5.015276 0.757704-2.525678 1.262839-5.1596 0.541217-2.597841 0.793785-5.231763 0.252568-2.670003 0.252567-5.303925 0-5.412168-1.082433-10.680011-1.046353-5.303925-3.139058-10.28312-2.056624-4.943114-5.087438-9.417172-3.030814-4.474059-6.891494-8.262577h-0.036081q-58.740065-57.657631-134.58258-88.037934-73.280756-29.333951-152.550979-29.333952-79.234141 0-152.550978 29.333952-75.842516 30.380304-134.546499 87.965772l-0.072162 0.072162q-3.824599 3.788518-6.855413 8.262577-3.030814 4.437978-5.123519 9.417172-2.092705 4.979195-3.139058 10.28312-1.082434 5.267844-1.082434 10.680011 0 2.633922 0.252568 5.303925 0.252568 2.633922 0.793785 5.231763 0.505136 2.633922 1.29892 5.1596 0.757704 2.525678 1.804056 5.015276 0.97419 2.453516 2.23703 4.798789t2.742165 4.546221q1.443245 2.200948 3.175139 4.257572 1.659732 2.056624 3.535949 3.968923 1.912299 1.876218 3.968924 3.53595 2.020543 1.695813 4.257572 3.175139 2.200948 1.443245 4.546221 2.742165 2.345273 1.226758 4.798789 2.273111 2.453516 1.010271 5.015276 1.804056 2.525678 0.721622 5.1596 1.262839 2.597841 0.505136 5.231763 0.757704 2.633922 0.288649 5.303925 0.288648 5.267844 0 10.463525-1.010271 5.1596-1.046353 10.030551-3.030814 4.870951-1.984462 9.272848-4.870951 4.401897-2.88649 8.154333-6.602845 88.037935-86.378203 211.327124-86.378203 123.28919 0 211.254962 86.30604z m-230.52228 262.345829q3.752437 0 7.504873-0.360811t7.468792-1.082434q3.680274-0.721622 7.288386-1.840137 3.608112-1.082434 7.0719-2.525678 3.499869-1.443245 6.819332-3.247301 3.319463-1.767975 6.422439-3.86068 3.139058-2.092705 6.061629-4.474059 2.88649-2.381354 5.556492-5.051357 2.670003-2.670003 5.051357-5.556493 2.417435-2.922571 4.51014-6.061628 2.092705-3.139058 3.86068-6.45852 1.767975-3.319463 3.21122-6.783251 1.443245-3.463788 2.525678-7.0719 1.082434-3.608112 1.804056-7.324467 0.757704-3.680274 1.118515-7.432711 0.360811-3.752437 0.360811-7.504873 0-3.788518-0.360811-7.504873-0.360811-3.752437-1.082433-7.468792-0.721622-3.680274-1.804056-7.288387-1.118515-3.608112-2.56176-7.071899-1.443245-3.499869-3.247301-6.819332-1.767975-3.319463-3.86068-6.42244-2.092705-3.139058-4.474059-6.061628-2.381354-2.88649-5.051357-5.592574-2.633922-2.633922-5.556492-5.051357-2.88649-2.381354-6.061629-4.474059-3.102976-2.092705-6.422439-3.86068-3.319463-1.804056-6.819332-3.2473-3.463788-1.407164-7.0719-2.525679-3.608112-1.082434-7.324467-1.804056-3.680274-0.721622-7.432711-1.082434-3.752437-0.360811-7.504873-0.360811t-7.504873 0.360811q-3.752437 0.360811-7.468792 1.082434-3.680274 0.721622-7.288386 1.804056-3.608112 1.118515-7.0719 2.525679-3.499869 1.443245-6.819332 3.2473-3.319463 1.804056-6.422439 3.86068-3.139058 2.092705-6.061629 4.474059-2.88649 2.417435-5.556492 5.051357-2.670003 2.670003-5.051357 5.592574-2.417435 2.88649-4.51014 6.061628-2.092705 3.102976-3.86068 6.42244-1.767975 3.319463-3.21122 6.819332-1.443245 3.463788-2.525678 7.071899-1.082434 3.608112-1.804056 7.288387-0.757704 3.716355-1.118515 7.468792-0.360811 3.752437-0.360811 7.504873t0.360811 7.504873q0.360811 3.752437 1.082433 7.432711 0.721622 3.716355 1.804056 7.324467 1.118515 3.608112 2.56176 7.0719 1.443245 3.463788 3.247301 6.783251 1.731894 3.319463 3.824599 6.494601 2.092705 3.102976 4.51014 6.025547 2.381354 2.88649 5.051357 5.556493 2.633922 2.670003 5.556492 5.051357 2.88649 2.381354 6.061629 4.474059 3.102976 2.092705 6.422439 3.896761 3.319463 1.767975 6.819332 3.21122 3.463788 1.443245 7.0719 2.525678 3.608112 1.082434 7.324467 1.804056 3.680274 0.757704 7.432711 1.118515 3.752437 0.360811 7.504873 0.360811z" p-id="28556"></path></svg>