<?xml version="1.0" standalone="no"?><!DOCTYPE svg PUBLIC "-//W3C//DTD SVG 1.1//EN" "http://www.w3.org/Graphics/SVG/1.1/DTD/svg11.dtd"><svg t="1771685431580" class="icon" viewBox="0 0 1024 1024" version="1.1" xmlns="http://www.w3.org/2000/svg" p-id="20293" xmlns:xlink="http://www.w3.org/1999/xlink" width="200" height="200"><path d="M884.67456 546.12992H614.4h0.03072-34.16064c-75.39712 0-136.54016 61.1328-136.54016 136.52992v68.27008c0 56.53504 45.86496 102.4 102.4 102.4H375.47008v-409.6h153.6l17.05984 34.12992h136.54016l17.05984-34.12992h85.34016V102.4H102.4v819.2h750.92992v-68.27008H682.67008c56.53504 0 102.4-45.86496 102.4-102.4v-68.27008c0-24.99584-7.19872-48.09728-18.944-68.25984h74.87488c7.70048 21.4016 12.32896 44.25728 12.32896 68.25984v68.27008h68.23936L921.6 682.65984c0-49.72544-13.59872-96.32768-36.92544-136.52992zM307.2 853.32992H170.67008V580.25984h68.25984V512h-68.25984v-68.27008h68.25984v-68.27008h-68.25984v-204.8H716.8v204.8H307.2v477.87008z m409.6-102.4a34.12992 34.12992 0 0 1-34.12992 34.12992H546.12992A34.1504 34.1504 0 0 1 512 750.92992v-68.27008A68.352 68.352 0 0 1 580.27008 614.4h68.25984C686.17216 614.4 716.8 645.05856 716.8 682.65984v68.27008z" p-id="20294" fill="#2c2c2c"></path><path d="M290.12992 273.05984m-51.2 0a51.2 51.2 0 1 0 102.4 0 51.2 51.2 0 1 0-102.4 0Z" p-id="20295" fill="#2c2c2c"></path><path d="M460.8 273.05984m-51.2 0a51.2 51.2 0 1 0 102.4 0 51.2 51.2 0 1 0-102.4 0Z" p-id="20296" fill="#2c2c2c"></path></svg>