<?xml version="1.0" standalone="no"?><!DOCTYPE svg PUBLIC "-//W3C//DTD SVG 1.1//EN" "http://www.w3.org/Graphics/SVG/1.1/DTD/svg11.dtd"><svg t="1771686242132" class="icon" viewBox="0 0 1024 1024" version="1.1" xmlns="http://www.w3.org/2000/svg" p-id="50452" xmlns:xlink="http://www.w3.org/1999/xlink" width="200" height="200"><path d="M561.938656 457.274859H454.903359v107.035298H133.797467v374.62354h749.247081v-374.62354H561.938656v-107.035298z m267.588243 267.588244v160.552946H187.315115v-160.552946h642.211784z" fill="#2c2c2c" p-id="50453"></path><path d="M309.509287 510.792508H389.076651c0-107.035297 53.557787-119.344357 119.344356-119.344356s119.344357 12.309059 119.344357 119.344356h79.567364c0-107.035297-89.247369-198.911721-198.905031-198.911721-109.664352 0.00669-198.91841 91.876423-198.91841 198.911721z" fill="#2c2c2c" p-id="50454"></path><path d="M508.421007 179.277433c185.906932 0 331.521764 117.44448 331.521765 331.515075h79.567364c0-267.588243-180.575236-411.082439-411.082439-411.082439-234.340404 0-411.082439 143.494196-411.082439 411.082439h79.567364c-0.00669-214.070595 139.440234-331.515075 331.508385-331.515075zM240.832764 758.311633h53.517649v53.517649h-53.517649zM347.868061 758.311633h53.517649v53.517649h-53.517649zM454.903359 758.311633h53.517648v53.517649h-53.517648zM561.938656 758.311633h53.517649v53.517649h-53.517649z" fill="#2c2c2c" p-id="50455"></path></svg>