<?xml version="1.0" standalone="no"?><!DOCTYPE svg PUBLIC "-//W3C//DTD SVG 1.1//EN" "http://www.w3.org/Graphics/SVG/1.1/DTD/svg11.dtd"><svg t="1771685308373" class="icon" viewBox="0 0 1024 1024" version="1.1" xmlns="http://www.w3.org/2000/svg" p-id="15012" xmlns:xlink="http://www.w3.org/1999/xlink" width="200" height="200"><path d="M597.333333 810.666667h42.666667v85.333333H85.333333v-85.333333h42.666667V170.666667a42.666667 42.666667 0 0 1 42.666667-42.666667h384a42.666667 42.666667 0 0 1 42.666666 42.666667v341.333333h85.333334a85.333333 85.333333 0 0 1 85.333333 85.333333v170.666667a42.666667 42.666667 0 0 0 85.333333 0v-298.666667h-85.333333a42.666667 42.666667 0 0 1-42.666667-42.666666V273.664l-70.698666-70.698667 60.330666-60.330666 211.2 211.2A42.538667 42.538667 0 0 1 938.666667 384v384a128 128 0 0 1-256 0v-170.666667h-85.333334v213.333334z m-384 0h298.666667V213.333333H213.333333v597.333334z m170.666667-341.333334h128l-170.666667 256v-170.666666H213.333333l170.666667-256v170.666666z" p-id="15013" fill="#2c2c2c"></path></svg>