<?xml version="1.0" standalone="no"?><!DOCTYPE svg PUBLIC "-//W3C//DTD SVG 1.1//EN" "http://www.w3.org/Graphics/SVG/1.1/DTD/svg11.dtd"><svg t="1771685817068" class="icon" viewBox="0 0 1024 1024" version="1.1" xmlns="http://www.w3.org/2000/svg" p-id="33331" xmlns:xlink="http://www.w3.org/1999/xlink" width="200" height="200"><path d="M515.925333 79.018667a84.536889 84.536889 0 1 1 166.001778 31.914666 84.536889 84.536889 0 0 1-166.001778-31.914666zM167.992889 722.887111l166.570667-14.165333c2.56-0.227556 5.006222-0.853333 7.395555-1.422222a46.136889 46.136889 0 0 0 38.115556-24.177778l77.255111-143.473778 117.134222 80.156444 64.398222 178.403556a46.307556 46.307556 0 0 0 86.584889-32.881778l-67.527111-187.278222a45.511111 45.511111 0 0 0-13.482667-18.716444 45.852444 45.852444 0 0 0-12.174222-12.344889l-130.844444-89.486223 58.993777-119.523555 24.177778 30.435555c1.991111 2.503111 4.266667 4.608 6.656 6.485334 10.638222 12.515556 28.216889 17.806222 44.487111 11.832889l119.296-43.406223a40.334222 40.334222 0 0 0-27.818666-75.662222l-92.899556 33.792-39.310222-49.493333a73.216 73.216 0 0 0-102.172445-69.006222L382.748444 163.271111a39.139556 39.139556 0 0 0-10.467555-0.341333 40.106667 40.106667 0 0 0-27.534222 7.68L242.688 245.987556a40.277333 40.277333 0 1 0 48.071111 64.682666l89.372445-65.991111 57.287111 10.24L367.843556 395.946667c-2.844444 5.916444-4.721778 12.060444-5.916445 18.204444-0.682667 0.967111-1.536 1.706667-2.218667 2.673778a46.307556 46.307556 0 0 0 12.174223 64.341333l8.533333 5.859556-70.485333 130.844444-150.584889 12.743111a46.364444 46.364444 0 1 0 8.647111 92.273778z m809.415111-373.475555a49.664 49.664 0 0 0-61.553778 33.678222l-141.198222 483.783111-728.405333 55.182222c-1.024 0.113778-1.991111 0.455111-3.015111 0.568889a38.513778 38.513778 0 0 0-9.671112 2.332444 36.977778 36.977778 0 0 0-8.760888 4.096 49.208889 49.208889 0 0 0-7.623112 5.632 45.169778 45.169778 0 0 0-9.216 10.808889 50.858667 50.858667 0 0 0-5.688888 13.198223 45.681778 45.681778 0 0 0-1.536 9.728c-0.056889 1.080889-0.341333 2.104889-0.341334 3.128888 0 0.682667 0.170667 1.308444 0.227556 1.934223 0 0.568889-0.113778 1.137778-0.056889 1.820444 0.056889 1.137778 0.398222 2.161778 0.568889 3.185778 0.227556 1.592889 0.398222 3.128889 0.796444 4.664889 0.398222 1.649778 0.910222 3.185778 1.479111 4.778666 0.512 1.422222 0.967111 2.844444 1.592889 4.152889 0.682667 1.592889 1.536 3.015111 2.389334 4.494223 0.739556 1.251556 1.422222 2.446222 2.218666 3.640888 1.024 1.365333 2.161778 2.673778 3.299556 3.982223 0.910222 1.024 1.763556 2.104889 2.787555 3.072 1.251556 1.137778 2.616889 2.218667 3.982223 3.299555 1.080889 0.853333 2.104889 1.706667 3.299555 2.503111 1.479111 0.967111 3.128889 1.706667 4.721778 2.56 1.137778 0.568889 2.275556 1.308444 3.527111 1.820445 1.934222 0.739556 3.925333 1.251556 5.973333 1.820444 1.024 0.284444 1.991111 0.682667 3.072 0.910222a49.322667 49.322667 0 0 0 9.671111 1.024h820.565334a49.607111 49.607111 0 0 0 0-99.214222h-8.590222l149.219555-511.032889a49.664 49.664 0 0 0-33.735111-61.553777z" fill="#2c2c2c" p-id="33332"></path></svg>