<?xml version="1.0" standalone="no"?><!DOCTYPE svg PUBLIC "-//W3C//DTD SVG 1.1//EN" "http://www.w3.org/Graphics/SVG/1.1/DTD/svg11.dtd"><svg t="1771685995870" class="icon" viewBox="0 0 1024 1024" version="1.1" xmlns="http://www.w3.org/2000/svg" p-id="38084" xmlns:xlink="http://www.w3.org/1999/xlink" width="200" height="200"><path d="M62.086737 712.165053a30.288842 30.288842 0 0 0 2.155789 40.744421l54.002527 53.625263c-7.329684 23.713684-14.551579 62.895158 0 102.29221 14.066526 37.726316 44.032 66.398316 89.034105 85.261474 14.821053 6.197895 30.181053 8.946526 45.97221 8.946526 47.104 0 98.304-23.875368 151.65979-48.774736 108.867368-50.714947 232.286316-108.328421 367.346526-3.018106a30.827789 30.827789 0 0 0 43.11579-5.173894 30.342737 30.342737 0 0 0-5.22779-42.846316c-164.810105-128.377263-318.787368-56.589474-431.265684-4.20379-61.116632 28.456421-113.879579 53.032421-147.779368 38.804211-28.833684-12.018526-47.427368-28.887579-55.242106-50.122105a81.812211 81.812211 0 0 1-4.742737-28.510316l24.037053 23.875368a30.773895 30.773895 0 0 0 40.96 2.15579l421.349053-337.758316c6.467368 0.431158 12.773053 0.916211 19.294316 0.91621 152.198737 0 275.941053-122.933895 275.941052-274.162526C952.643368 123.041684 828.901053 0 676.702316 0 524.719158 0 400.976842 122.933895 400.976842 274.216421c0 6.467368 0.538947 12.826947 1.024 19.132632L62.086737 712.165053m829.278316-437.948632c0 117.490526-96.202105 213.207579-214.501053 213.207579-118.298947 0-214.501053-95.663158-214.501053-213.207579s96.202105-213.153684 214.501053-213.153684c118.191158-0.107789 214.501053 95.609263 214.501053 213.153684M219.136 820.493474l-38.858105-38.642527a30.881684 30.881684 0 0 0-9.539369-9.485473l-43.546947-43.223579 291.462737-359.046737a276.587789 276.587789 0 0 0 161.845895 160.821895l-361.364211 289.576421m184.966737-314.637474l-66.56 66.128842a30.396632 30.396632 0 0 0 21.719579 52.008421c7.868632 0 15.683368-2.964211 21.719579-8.892631l66.506105-66.128843a30.396632 30.396632 0 0 0 0-43.115789 30.827789 30.827789 0 0 0-43.385263 0" fill="#2c2c2c" p-id="38085"></path></svg>