<?xml version="1.0" standalone="no"?><!DOCTYPE svg PUBLIC "-//W3C//DTD SVG 1.1//EN" "http://www.w3.org/Graphics/SVG/1.1/DTD/svg11.dtd"><svg t="1771685709188" class="icon" viewBox="0 0 1024 1024" version="1.1" xmlns="http://www.w3.org/2000/svg" p-id="27454" xmlns:xlink="http://www.w3.org/1999/xlink" width="200" height="200"><path d="M354.218667 253.44a347.306667 347.306667 0 0 0-1.749334 71.509333H285.013333c-44.8 0-63.146667 27.861333-83.541333 67.242667l-1.237333 2.432a1.92 1.92 0 0 0-0.128 0.554667c-0.256 1.28-1.365333 2.56-2.005334 4.437333l-61.44 174.848a2.901333 2.901333 0 0 0 2.730667 3.84h334.890667a374.570667 374.570667 0 0 0 175.018666 90.453333 61.952 61.952 0 0 0-20.437333 13.354667 61.44 61.44 0 0 0-13.354667 66.986667c9.514667 23.04 31.914667 37.930667 56.704 37.717333a60.757333 60.757333 0 0 0 58.026667-41.557333 61.226667 61.226667 0 0 0-21.205333-68.352c6.357333 0.469333 12.672 0.469333 19.072 0.469333a372.693333 372.693333 0 0 0 139.605333-27.050667c0.597333 4.693333 0.938667 9.386667 1.066667 14.08v222.293334a137.045333 137.045333 0 0 1-121.514667 136.106666 140.202667 140.202667 0 0 1-142.08-73.301333 2.901333 2.901333 0 0 0-2.56-1.536l-168.234667 0.64-168.234666-0.64a2.816 2.816 0 0 0-2.56 1.536 140.202667 140.202667 0 0 1-142.08 73.301333A136.618667 136.618667 0 0 1 0 886.997333v-222.592c0.469333-49.28 29.013333-97.834667 76.586667-131.328 0 0 45.738667-145.706667 58.794666-169.130666 4.309333-8.064 10.581333-19.413333 18.56-32.213334 5.333333-8.704 11.221333-17.066667 17.706667-24.917333 14.208-18.816 33.28-33.408 55.125333-42.112l1.834667-0.554667c18.346667-7.338667 37.888-10.965333 57.6-10.709333z m-113.92 428.842667a60.8 60.8 0 0 0-71.893334-11.264 61.44 61.44 0 0 0 22.186667 115.370666 61.013333 61.013333 0 0 0 62.506667-37.418666 61.696 61.696 0 0 0-12.8-66.688zM727.637333 0C891.306667 0 1024 133.418667 1024 297.984s-132.693333 297.984-296.362667 297.984-296.362667-133.418667-296.362666-297.984S563.968 0 727.637333 0z m42.837334 125.568h-158.293334v344.746667h33.194667c18.005333 0.341333 32.853333-14.08 33.237333-32.213334v-110.933333h95.146667A101.632 101.632 0 0 0 874.666667 213.034667a103.168 103.168 0 0 0-104.106667-87.509334z m3.285333 66.261333a34.432 34.432 0 0 1 24.661333 9.941334 34.816 34.816 0 0 1 9.728 31.786666 35.584 35.584 0 0 1-35.84 27.434667h-93.696v-69.12z" fill="#2c2c2c" p-id="27455"></path></svg>