<?xml version="1.0" standalone="no"?><!DOCTYPE svg PUBLIC "-//W3C//DTD SVG 1.1//EN" "http://www.w3.org/Graphics/SVG/1.1/DTD/svg11.dtd"><svg t="1771686424890" class="icon" viewBox="0 0 1024 1024" version="1.1" xmlns="http://www.w3.org/2000/svg" p-id="64587" xmlns:xlink="http://www.w3.org/1999/xlink" width="200" height="200"><path d="M746.656 330.656a32 32 0 0 1-32-32c0-100-90.912-181.344-202.656-181.344S309.344 198.656 309.344 298.656a32 32 0 0 1-64 0c0-135.296 119.616-245.344 266.656-245.344s266.656 110.048 266.656 245.344a32 32 0 0 1-32 32z" p-id="64588" fill="#2c2c2c"></path><path d="M832 672h-192a74.752 74.752 0 0 1-74.656-74.656 10.656 10.656 0 0 0-10.656-10.656h-85.344a10.656 10.656 0 0 0-10.656 10.656A74.816 74.816 0 0 1 384 672H192a74.752 74.752 0 0 1-74.656-74.656v-256A74.752 74.752 0 0 1 192 266.656h640a74.752 74.752 0 0 1 74.656 74.656v256A74.752 74.752 0 0 1 832 672z m-362.656-149.312h85.344a74.752 74.752 0 0 1 74.656 74.656c0 5.888 4.768 10.656 10.656 10.656h192a10.656 10.656 0 0 0 10.656-10.688v-256a10.656 10.656 0 0 0-10.656-10.656H192a10.688 10.688 0 0 0-10.656 10.688v256c0 5.888 4.768 10.656 10.656 10.656h192c5.888 0 10.656-4.8 10.688-10.688a74.72 74.72 0 0 1 74.656-74.624z" p-id="64589" fill="#2c2c2c"></path><path d="M810.688 970.656H213.344a32 32 0 0 1-32-32V640a32 32 0 1 1 64 0v266.656h533.344V640a32 32 0 1 1 64 0v298.656a32 32 0 0 1-32 32z" p-id="64590" fill="#2c2c2c"></path><path d="M597.312 714.656h-170.656a32 32 0 0 1-32-32v-128a32 32 0 0 1 32-32h170.656a32 32 0 0 1 32 32v128a32 32 0 0 1-32 32z m-138.656-64h106.656v-64h-106.656v64z" p-id="64591" fill="#2c2c2c"></path></svg>