<?xml version="1.0" standalone="no"?><!DOCTYPE svg PUBLIC "-//W3C//DTD SVG 1.1//EN" "http://www.w3.org/Graphics/SVG/1.1/DTD/svg11.dtd"><svg t="1771685517836" class="icon" viewBox="0 0 1024 1024" version="1.1" xmlns="http://www.w3.org/2000/svg" p-id="22710" xmlns:xlink="http://www.w3.org/1999/xlink" width="200" height="200"><path d="M832 96c17.6 0 32 14.4 32 32v768c0 17.6-14.4 32-32 32H192c-17.6 0-32-14.4-32-32V128c0-17.6 14.4-32 32-32h640zM192 0C121.4 0 64 57.4 64 128v768c0 70.6 57.4 128 128 128h640c70.6 0 128-57.4 128-128V128c0-70.6-57.4-128-128-128H192z m128 208a48 48 0 1 0-96 0 48 48 0 1 0 96 0z m112 48a48 48 0 1 0 0-96 48 48 0 1 0 0 96z m80 512c-89.4 0-164.6-61.2-186-144h106c26.6 0 48-21.4 48-48s-21.4-48-48-48h-106c21.4-82.8 96.4-144 186-144 106 0 192 86 192 192s-86 192-192 192z m0 96a288 288 0 1 0 0-576 288 288 0 1 0 0 576z" p-id="22711" fill="#2c2c2c"></path></svg>