<?xml version="1.0" standalone="no"?><!DOCTYPE svg PUBLIC "-//W3C//DTD SVG 1.1//EN" "http://www.w3.org/Graphics/SVG/1.1/DTD/svg11.dtd"><svg t="1771685599876" class="icon" viewBox="0 0 1024 1024" version="1.1" xmlns="http://www.w3.org/2000/svg" p-id="24927" xmlns:xlink="http://www.w3.org/1999/xlink" width="200" height="200"><path d="M810.666667 87.04a85.333333 85.333333 0 0 1 85.333333 85.333333v682.666667a85.333333 85.333333 0 0 1-85.333333 85.333333H213.333333a85.333333 85.333333 0 0 1-85.333333-85.333333v-682.666667a85.333333 85.333333 0 0 1 85.333333-85.333333h597.333334z m34.133333 262.826667H179.2v505.173333a34.133333 34.133333 0 0 0 29.866667 33.877333l4.266666 0.256h597.333334a34.133333 34.133333 0 0 0 33.877333-29.866666l0.256-4.266667V349.866667zM512 405.333333a192 192 0 1 1 0 384 192 192 0 0 1 0-384z m-102.784 209.152l-8.021333 2.773334-26.752 10.24a140.842667 140.842667 0 0 0 273.578666 6.4l5.546667-3.413334a134.4 134.4 0 0 1-141.056 3.413334l-7.594667-4.778667a112.810667 112.810667 0 0 0-95.701333-14.634667zM512 456.533333a140.8 140.8 0 0 0-138.709333 116.608l9.557333-3.712a164.010667 164.010667 0 0 1 142.293333 11.946667l8.490667 5.376a83.2 83.2 0 0 0 85.888 4.437333l6.101333-3.626666 24.789334-16.170667A140.842667 140.842667 0 0 0 512 456.533333z m298.666667-318.293333H213.333333a34.133333 34.133333 0 0 0-33.877333 29.866667l-0.256 4.266666V298.666667h665.6V172.373333a34.133333 34.133333 0 0 0-29.866667-33.877333L810.666667 138.24zM256 170.666667a42.666667 42.666667 0 1 1 0 85.333333 42.666667 42.666667 0 0 1 0-85.333333z m128 0a42.666667 42.666667 0 1 1 0 85.333333 42.666667 42.666667 0 0 1 0-85.333333z" fill="#2c2c2c" p-id="24928"></path></svg>