<?xml version="1.0" standalone="no"?><!DOCTYPE svg PUBLIC "-//W3C//DTD SVG 1.1//EN" "http://www.w3.org/Graphics/SVG/1.1/DTD/svg11.dtd"><svg t="1771686365056" class="icon" viewBox="0 0 1024 1024" version="1.1" xmlns="http://www.w3.org/2000/svg" p-id="56191" xmlns:xlink="http://www.w3.org/1999/xlink" width="200" height="200"><path d="M933.78993 532.597107c-6.948249-15.358803-15.440667-29.356608-25.379017-41.928948L908.410913 260.385379c0-21.267373-17.35425-38.570457-38.705534-38.570457L150.757051 221.814921c-22.490224 0-39.477107 16.582677-39.477107 38.570457l0 231.156684c-9.768481 12.33698-18.126846 26.016537-24.974811 40.98853-15.476483 33.82027-23.330358 74.287937-23.330358 120.259968l0 12.605086 0 128.217197c0 6.965645 5.773494 12.605086 12.924357 12.605086l87.212294 0c7.150864 0 12.958126-5.640464 12.958126-12.605086l0-49.581232 667.252947 0 0 49.581232c0 6.965645 5.774517 12.605086 12.925381 12.605086l87.213317 0c7.14677 0 12.921287-5.640464 12.921287-12.58769l0.303922-128.234593 0.031722 0L956.718129 652.79056C956.717106 606.802156 948.996261 566.349839 933.78993 532.597107L933.78993 532.597107M826.46967 390.128325l0 41.358967c-21.451568-8.006348-41.627073-11.279904-56.329936-11.279904L522.769786 420.207387l0-30.749328c0-37.932937 11.514241-48.910966 51.360761-48.910966l201.549366 0C815.089481 340.547093 826.46967 351.659175 826.46967 390.128325L826.46967 390.128325M496.888326 389.458059l0 30.749328-247.169379 0c-12.253068 0-33.167401 2.954285-56.530504 11.783371L193.188442 390.128325c0-38.46915 11.412934-49.581232 50.823526-49.581232l201.549366 0C485.407853 340.547093 496.888326 351.525122 496.888326 389.458059L496.888326 389.458059M930.534793 781.040503l-61.331857 0 0-49.597605c0-6.965645-5.806239-12.605086-12.95608-12.605086l-693.136453 0c-7.150864 0-12.923334 5.640464-12.923334 12.605086l0 49.597605-61.364603 0L88.822466 665.395646 930.8029 665.395646 930.534793 781.040503 930.534793 781.040503M930.534793 781.040503" p-id="56192" fill="#2c2c2c"></path></svg>