<?xml version="1.0" standalone="no"?><!DOCTYPE svg PUBLIC "-//W3C//DTD SVG 1.1//EN" "http://www.w3.org/Graphics/SVG/1.1/DTD/svg11.dtd"><svg t="1771686093827" class="icon" viewBox="0 0 1137 1024" version="1.1" xmlns="http://www.w3.org/2000/svg" p-id="43173" xmlns:xlink="http://www.w3.org/1999/xlink" width="222.0703125" height="200"><path d="M790.186667 38.798222c30.833778 0 60.074667 13.994667 79.701333 38.229334l222.208 273.749333c33.336889 41.073778 31.232 101.034667-4.892444 139.548444l-443.164445 473.031111a102.172444 102.172444 0 0 1-146.204444 3.584 104.334222 104.334222 0 0 1-3.527111-3.584L51.143111 490.382222a106.609778 106.609778 0 0 1-5.916444-138.353778l0.967111-1.194666 222.208-273.749334c19.626667-24.234667 48.924444-38.229333 79.758222-38.229333h442.026667z m0 57.400889H348.16a46.648889 46.648889 0 0 0-36.295111 17.351111L89.713778 387.299556l-0.512 0.568888a48.469333 48.469333 0 0 0 2.730666 62.862223l443.164445 473.031111 1.592889 1.592889c18.773333 18.204444 48.583111 17.521778 66.503111-1.592889l443.164444-473.031111a48.469333 48.469333 0 0 0 2.218667-63.431111l-222.151111-273.749334a46.648889 46.648889 0 0 0-36.295111-17.351111z m4.778666 333.710222a27.875556 27.875556 0 0 1 39.879111 0 29.013333 29.013333 0 0 1 0 40.561778l-191.715555 195.128889a102.172444 102.172444 0 0 1-146.318222 0l-191.715556-195.128889a29.013333 29.013333 0 0 1 0-40.561778 27.875556 27.875556 0 0 1 39.822222 0l191.772445 195.128889a46.421333 46.421333 0 0 0 66.56 0l191.715555-195.128889z" fill="#2c2c2c" p-id="43174"></path></svg>