<?xml version="1.0" standalone="no"?><!DOCTYPE svg PUBLIC "-//W3C//DTD SVG 1.1//EN" "http://www.w3.org/Graphics/SVG/1.1/DTD/svg11.dtd"><svg t="1771686026869" class="icon" viewBox="0 0 1024 1024" version="1.1" xmlns="http://www.w3.org/2000/svg" p-id="39215" xmlns:xlink="http://www.w3.org/1999/xlink" width="200" height="200"><path d="M893.484339 1024H157.436C115.084089 1024 80.630066 989.552115 80.630066 947.196112V79.936443C80.630066 37.586579 115.084089 3.132556 157.436 3.132556h736.048339c42.353957 0 76.80798 34.454023 76.807979 76.803887V947.196112c0 42.356003-34.454023 76.803888-76.807979 76.803888zM157.436 54.33583c-14.109801 0-25.600614 11.488767-25.600614 25.600613V947.196112c0 14.113893 11.488767 25.598568 25.600614 25.598568h736.048339c14.113893 0 25.60266-11.482628 25.60266-25.598568V79.936443c0-14.109801-11.48672-25.600614-25.60266-25.600613H157.436z" fill="#2c2c2c" p-id="39216"></path><path d="M129.707458 229.286316h802.179847v51.203274H129.707458zM189.974888 125.543675h155.207813V176.742857H189.974888zM802.28829 125.543675h51.20532V176.742857h-51.20532zM699.883789 125.543675h51.20532V176.742857h-51.20532zM523.468306 898.667072c-155.205767 0-281.488079-126.284358-281.488079-281.494218 0-155.207813 126.282312-281.490125 281.488079-281.490125 155.211906 0 281.494217 126.282312 281.494217 281.490125 0 155.20986-126.280266 281.494217-281.494217 281.494218z m0-511.785161c-126.982073 0-230.284805 103.308871-230.284806 230.290943 0 126.986165 103.302733 230.288898 230.284806 230.288898 126.988211 0 230.299128-103.302733 230.299128-230.288898 0-126.984119-103.308871-230.290944-230.299128-230.290943z" fill="#2c2c2c" p-id="39217"></path><path d="M516.043064 819.845744l-11.699514-49.850811c83.105829-19.499189 150.096693-85.638882 170.688492-168.507365l49.701447 12.350168c-25.561738 102.86487-105.530919 181.813055-208.690425 206.008008z" fill="#2c2c2c" p-id="39218"></path></svg>