<?xml version="1.0" standalone="no"?><!DOCTYPE svg PUBLIC "-//W3C//DTD SVG 1.1//EN" "http://www.w3.org/Graphics/SVG/1.1/DTD/svg11.dtd"><svg t="1771685565274" class="icon" viewBox="0 0 1024 1024" version="1.1" xmlns="http://www.w3.org/2000/svg" p-id="23820" xmlns:xlink="http://www.w3.org/1999/xlink" width="200" height="200"><path d="M344.244706 299.369412a130.710588 130.710588 0 1 0 130.710588 130.710588 131.011765 131.011765 0 0 0-130.710588-130.710588z m0 201.487059a70.475294 70.475294 0 1 1 70.475294-70.475295 70.776471 70.776471 0 0 1-70.475294 70.475295zM679.755294 561.091765a130.710588 130.710588 0 1 0-130.710588-130.710589 131.011765 131.011765 0 0 0 130.710588 130.710589z m0-201.487059a70.475294 70.475294 0 1 1-70.475294 70.475294 70.776471 70.776471 0 0 1 70.475294-70.475294zM448.451765 551.152941a86.136471 86.136471 0 1 0 120.470588-5.12 86.738824 86.738824 0 0 0-61.741177-22.588235 85.534118 85.534118 0 0 0-58.729411 27.708235zM512 583.378824a25.901176 25.901176 0 1 1-18.974118 8.432941 25.6 25.6 0 0 1 18.974118-8.432941z" fill="#2c2c2c" p-id="23821"></path><path d="M816.790588 623.736471a96.677647 96.677647 0 0 1-20.48-28.009412 30.117647 30.117647 0 0 0-53.910588 27.105882c9.336471 18.371765 34.635294 60.235294 71.68 60.235294 30.117647 0 35.237647 3.312941 38.550588 12.950589a1335.416471 1335.416471 0 0 1 18.672941 161.731764h-49.392941V777.035294a30.117647 30.117647 0 0 0-60.235294 0v81.618824h-97.581176c-5.421176-97.581176-50.296471-135.228235-55.717647-139.444706a30.117647 30.117647 0 0 0-41.261177 5.722353 30.117647 30.117647 0 0 0 4.517647 42.164706 133.12 133.12 0 0 1 32.527059 90.352941h-184.32a134.023529 134.023529 0 0 1 32.225882-90.352941 30.117647 30.117647 0 0 0-36.743529-47.887059c-5.421176 4.216471-50.296471 41.863529-55.717647 139.444706h-108.42353V777.035294a30.117647 30.117647 0 0 0-60.235294 0v81.618824H152.696471a1329.392941 1329.392941 0 0 1 18.672941-161.731765c3.312941-9.637647 9.336471-12.950588 38.550588-12.950588 37.044706 0 62.343529-43.068235 71.68-60.235294a30.117647 30.117647 0 0 0-53.910588-27.105883 96.978824 96.978824 0 0 1-20.781177 28.310588 87.341176 87.341176 0 0 0-92.762353 54.211765 1618.522353 1618.522353 0 0 0-23.792941 207.811765 30.117647 30.117647 0 0 0 30.117647 32.225882h783.058824a30.117647 30.117647 0 0 0 30.117647-32.225882 1622.437647 1622.437647 0 0 0-23.792941-209.016471 87.341176 87.341176 0 0 0-93.06353-54.211764zM973.402353 257.204706l-451.764706-150.588235a30.117647 30.117647 0 0 0-18.974118 0l-451.764705 150.588235a30.117647 30.117647 0 0 0 18.974117 57.223529L512 166.851765l442.127059 147.275294a30.117647 30.117647 0 0 0 18.974117-57.22353z" fill="#2c2c2c" p-id="23822"></path></svg>